<svg viewBox="130 160 300 300" width="32" height="32">
  <g fill="#102a83">
    <path d="m 153.1636,168.5046 a 19.1478,19.1478 0 0 1 19.1479,19.1478 19.1478,19.1478 0 1 1 -19.1479,-19.1478 z" />
    <path d="m 203.4093,168.5046 a 19.1478,19.1478 0 0 1 19.1479,19.1478 19.1478,19.1478 0 1 1 -19.1479,-19.1478 z" />
    <path d="m 253.655,168.5046 a 19.1478,19.1478 0 0 1 19.1478,19.1478 19.1478,19.1478 0 1 1 -19.1478,-19.1478 z" />
    <path d="m 303.9007,168.5046 a 19.1478,19.1478 0 0 1 19.1478,19.1478 19.1478,19.1478 0 1 1 -19.1478,-19.1478 z" />
    <path d="m 354.1464,168.5046 a 19.1478,19.1478 0 0 1 19.1478,19.1478 19.1478,19.1478 0 1 1 -19.1478,-19.1478 z" />
    <path d="m 404.3921,168.5046 a 19.1478,19.1478 0 0 1 19.1478,19.1478 19.1478,19.1478 0 1 1 -19.1478,-19.1478 z" />
    <path d="m 153.1636,217.7412 a 19.1478,19.1478 0 0 1 19.1479,19.1478 19.1478,19.1478 0 1 1 -19.1479,-19.1478 z" />
    <path d="m 153.1636,266.9779 a 19.1478,19.1478 0 0 1 19.1479,19.1478 19.1478,19.1478 0 1 1 -19.1479,-19.1478 z" />
    <path d="m 153.1636,316.2145 a 19.1478,19.1478 0 0 1 19.1479,19.1478 19.1478,19.1478 0 1 1 -19.1479,-19.1478 z" />
    <path d="m 153.1636,365.4512 a 19.1478,19.1478 0 0 1 19.1479,19.1478 19.1478,19.1478 0 1 1 -19.1479,-19.1478 z" />
    <path d="m 153.1636,414.6878 a 19.1478,19.1478 0 0 1 19.1479,19.1478 19.1478,19.1478 0 1 1 -19.1479,-19.1478 z" />
    <path d="m 203.4093,217.7412 a 19.1478,19.1478 0 0 1 19.1479,19.1478 19.1478,19.1478 0 1 1 -19.1479,-19.1478 z" />
    <path d="m 203.4093,266.9779 a 19.1478,19.1478 0 0 1 19.1479,19.1478 19.1478,19.1478 0 1 1 -19.1479,-19.1478 z" />
    <path d="m 203.4093,316.2145 a 19.1478,19.1478 0 0 1 19.1479,19.1478 19.1478,19.1478 0 1 1 -19.1479,-19.1478 z" />
    <path d="m 203.4093,365.4512 a 19.1478,19.1478 0 0 1 19.1479,19.1478 19.1478,19.1478 0 1 1 -19.1479,-19.1478 z" />
    <path d="m 203.4093,414.6878 a 19.1478,19.1478 0 0 1 19.1479,19.1478 19.1478,19.1478 0 1 1 -19.1479,-19.1478 z" />
    <path d="M 253.655,217.7412 A 19.1478,19.1478 0 0 1 272.8028,236.889 19.1478,19.1478 0 1 1 253.655,217.7412 Z" />
    <path d="M 253.655,365.4512 A 19.1478,19.1478 0 0 1 272.8028,384.599 19.1478,19.1478 0 1 1 253.655,365.4512 Z" />
    <path d="m 253.655,414.6878 a 19.1478,19.1478 0 0 1 19.1478,19.1478 19.1478,19.1478 0 1 1 -19.1478,-19.1478 z" />
    <path d="m 303.9007,217.7412 a 19.1478,19.1478 0 0 1 19.1478,19.1478 19.1478,19.1478 0 1 1 -19.1478,-19.1478 z" />
    <path d="m 303.9007,365.4512 a 19.1478,19.1478 0 0 1 19.1478,19.1478 19.1478,19.1478 0 1 1 -19.1478,-19.1478 z" />
    <path d="m 303.9007,414.6878 a 19.1478,19.1478 0 0 1 19.1478,19.1478 19.1478,19.1478 0 1 1 -19.1478,-19.1478 z" />
    <path d="m 354.1464,217.7412 a 19.1478,19.1478 0 0 1 19.1478,19.1478 19.1478,19.1478 0 1 1 -19.1478,-19.1478 z" />
    <path d="m 354.1464,266.9779 a 19.1478,19.1478 0 0 1 19.1478,19.1478 19.1478,19.1478 0 1 1 -19.1478,-19.1478 z" />
    <path d="m 354.1464,316.2145 a 19.1478,19.1478 0 0 1 19.1478,19.1478 19.1478,19.1478 0 1 1 -19.1478,-19.1478 z" />
    <path d="m 354.1464,365.4512 a 19.1478,19.1478 0 0 1 19.1478,19.1478 19.1478,19.1478 0 1 1 -19.1478,-19.1478 z" />
    <path d="m 354.1464,414.6878 a 19.1478,19.1478 0 0 1 19.1478,19.1478 19.1478,19.1478 0 1 1 -19.1478,-19.1478 z" />
    <path d="m 404.3921,217.7412 a 19.1478,19.1478 0 0 1 19.1478,19.1478 19.1478,19.1478 0 1 1 -19.1478,-19.1478 z" />
    <path d="m 404.3921,266.9779 a 19.1478,19.1478 0 0 1 19.1478,19.1478 19.1478,19.1478 0 1 1 -19.1478,-19.1478 z" />
    <path d="m 404.3921,316.2145 a 19.1478,19.1478 0 0 1 19.1478,19.1478 19.1478,19.1478 0 1 1 -19.1478,-19.1478 z" />
    <path d="m 404.3921,365.4512 a 19.1478,19.1478 0 0 1 19.1478,19.1478 19.1478,19.1478 0 1 1 -19.1478,-19.1478 z" />
    <path d="m 404.3921,414.6878 a 19.1478,19.1478 0 0 1 19.1478,19.1478 19.1478,19.1478 0 1 1 -19.1478,-19.1478 z" />
  </g>
</svg>